<svg height="107" viewBox="0 0 451 107" width="451" xmlns="http://www.w3.org/2000/svg"><path d="m163.081 14.398c0 .654-.66 1.307-1.319 1.307-.22 0-.659-.218-.879-.436-3.736-3.921-8.791-6.1-14.945-6.754-1.099-.217-2.198-.217-3.297-.217-11.124 0-23.518 5.437-34.343 14.226 0 0 16.321.153 16.321.153h8.571c7.913 0 13.407.436 16.924 1.089 4.835 1.09 8.131 3.051 10.329 5.665 1.978 2.832 2.418 6.1.879 9.804-.879 2.397-2.417 4.793-4.615 6.754s-5.055 3.922-8.791 5.665c4.615 1.961 7.472 4.139 9.011 6.972 1.318 2.832 1.318 6.1 0 9.804-1.319 3.704-3.736 6.972-7.473 10.022-3.516 3.05-7.692 5.229-12.088 6.754-4.395 1.525-10.329 2.179-17.143 2.179h-10.539c-.351.133-.723.218-1.109.218 0 0-12.69-.158-12.69-.158l-.057.158v-.158s-4.835-.06-4.835-.06c-1.759 0-3.297-1.525-3.297-3.268s1.538-3.268 3.297-3.268c0 0 7.271.089 7.271.089l18.936-51.794s-15.878-.149-15.878-.149c-.035 0-.068-.009-.102-.011-5.752 5.888-10.751 12.742-14.478 20.154 0 0 9.745.119 9.745.119 1.978 0 3.297 1.525 3.297 3.268s-1.539 3.268-3.297 3.268c0 0-12.687-.155-12.687-.155-2.066 5.33-3.233 10.677-3.577 15.624h-11.429c.66-6.972 2.638-14.161 6.154-21.787 12.528-27.234 40-47.714 63.517-47.714 1.319 0 2.638 0 3.956.218 8.792.872 15.824 4.793 20.44 11.547.22.218.439.436.22.872zm-18.242 26.58c.659-1.961.44-3.704-1.099-4.793-1.319-1.089-3.956-1.743-7.692-1.743h-7.693l-5.055 13.726h7.033c3.956 0 7.253-.654 9.671-1.961 2.417-1.307 3.956-3.05 4.835-5.229zm-31.649 34.642h7.693c6.813 0 11.648-.654 14.505-1.961s4.616-3.268 5.715-5.665c1.099-2.832.439-5.011-1.759-6.536-2.197-1.525-6.593-2.397-12.967-2.397h-7.033zm1.319-72.551c-10.33 1.307-21.538 6.971-31.209 15.686-3.736 3.268-7.033 6.972-10.11 10.894h-10.329c13.406-18.083 33.187-30.284 51.428-29.631.879 0 1.539.654 1.539 1.526 0 .653-.44 1.525-1.319 1.525zm-62.637 23.965c-5.715 7.408-10.33 15.905-12.748 24.838-3.297 11.547-3.297 22.876-.22 32.463 1.759 5.446 4.396 10.022 7.913 13.725.659.654.659 1.743 0 2.397-.22.436-.88.654-1.319.654-.44 0-.659 0-1.099-.218-4.926-3.404-8.733-7.983-11.402-13.34-.154.024-.308.05-.466.05 0 0-13.847-.218-13.847-.218-1.758 0-3.296-1.525-3.296-3.268s1.538-3.268 3.296-3.268c0 0 11.755.185 11.755.185-2.742-9.23-2.603-20.046.773-31.123 2.228-7.442 5.725-14.423 10.178-20.599 0 0-3.804-.099-3.804-.099-1.759 0-3.297-1.525-3.297-3.268s1.538-3.268 3.297-3.268c0 0 8.351.218 8.351.218.22 0 .436.024.646.069 6.648-7.229 14.716-12.888 23.53-16.192 1.099-.435 1.978 0 2.418.872.22.871 0 1.961-.44 2.614-7.472 3.704-14.505 9.587-20.219 16.776zm-30.55 26.581s-17.582.218-17.582.218c-1.979 0-3.737-1.743-3.737-3.704s1.758-3.704 3.737-3.704c0 0 17.362-.218 17.362-.218 2.198 0 3.956 1.743 3.956 3.704s-1.758 3.704-3.736 3.704zm29.231 1.307c.659-2.179 1.319-4.575 2.198-6.754 1.538-4.357 3.516-8.279 5.934-11.983h10.109c-2.637 4.575-5.054 9.151-7.032 14.162-.44 1.525-1.099 3.05-1.539 4.575zm7.692 6.318c-1.758 8.061-1.758 15.905-.22 22.659 2.198 9.15 7.033 15.904 14.066 19.826.66.436.879 1.307.66 1.961-.22.436-.66.871-1.319.871-.22 0-.22 0-.44 0-8.571-2.396-15.164-7.843-19.12-15.686-4.176-8.279-5.055-18.737-3.077-29.631zm22.418 16.341c.439 4.575 1.538 8.497 3.516 11.982 3.737 6.537 10.11 10.458 18.242 11.33 1.099.218 2.198.218 3.297.218 5.934 0 12.307-1.525 18.901-4.576.659-.218 1.538 0 1.758.654.44.654.22 1.307-.439 1.743-9.231 5.229-18.462 8.061-27.033 8.061-1.319 0-2.638 0-3.956-.218-9.671-1.089-17.143-5.664-21.759-13.508-2.637-4.575-4.176-9.804-4.176-15.686z" fill="#0096df"/><path d="m426.227 79.368c-10.806 0-17.482-7.127-17.482-16.854 0-13.834 10.102-25.825 24.685-25.825 11.508 0 17.569 7.882 17.569 16.938 0 13.835-10.19 25.741-24.772 25.741zm5.973-35.132c-8.17 0-12.913 10.397-12.913 18.027 0 5.618 3.162 9.559 8.345 9.559 7.643 0 12.738-10.062 12.738-18.195 0-4.193-1.933-9.391-8.17-9.391zm-23.192 2.012c-7.291 0-11.947 7.043-13.616 15.763 0 0-3.251 16.435-3.251 16.435h-10.189s6.676-37.145 7.203-40.834h9.58c-.593 2.747-1.235 5.617-1.674 8.636h.264c2.898-5.533 7.554-9.559 13.44-9.559.703 0 1.494.084 2.196.169 0 0-2.021 9.558-2.021 9.558-.526-.084-1.229-.168-1.932-.168zm-48.845 11.236c-2.108 0-3.953-.252-5.534-.42 0 0-4.217 21.382-4.217 21.382h-10.102s11.068-55.592 11.068-55.592c3.602-.838 8.961-1.341 14.319-1.341 5.446 0 11.332 1.09 15.109 4.024 3.515 2.516 5.447 6.206 5.447 11.236 0 6.708-3.338 12.075-7.554 15.345-4.745 3.605-11.508 5.366-18.536 5.366zm5.534-28.089c-2.547 0-4.48.168-5.622.503 0 0-3.865 19.117-3.865 19.117 1.669.336 3.162.503 5.359.503 8.697 0 14.406-5.282 14.406-11.99 0-5.953-4.48-8.133-10.278-8.133zm-52.851 49.973c-10.893 0-18.185-6.792-18.185-16.938 0-14.253 10.366-25.908 25.651-25.908 11.507 0 18.184 7.546 18.184 16.853 0 15.009-10.718 25.993-25.65 25.993zm5.797-33.707c-7.291 0-10.981 10.146-10.893 16.518 0 4.78 2.46 7.966 6.852 7.966 6.939 0 10.805-9.643 10.805-16.687 0-3.773-1.669-7.797-6.764-7.797zm-24.071.923h-9.137s-2.898 13.918-2.898 13.918c-.352 1.594-.703 3.774-.703 5.198 0 2.013.879 3.439 3.601 3.439 1.143 0 2.373 0 3.515-.169 0 0-1.494 9.475-1.494 9.475-1.581.587-4.743.923-7.467.923-7.554 0-11.156-3.773-11.156-8.888 0-2.264.263-4.444.878-7.63 0 0 6.765-33.12 6.765-33.12l13-3.438-2.196 11.152h9.136zm-34.35-14.255h-.087c-3.426 0-6.062-2.263-6.062-5.869.088-4.109 3.426-6.876 7.291-6.876 3.69 0 6.325 2.348 6.325 5.953 0 4.276-3.426 6.792-7.467 6.792zm-3.426 46.116h-12.649l8.169-41.001h12.65zm-24.949-29.933c5.709 1.677 9.311 6.121 9.311 12.325 0 6.037-3.426 10.482-8.081 13.416-5.008 3.186-12.475 4.612-22.314 4.612-6.676 0-12.035-.503-14.933-1.09 0 0 10.892-54.921 10.892-54.921 4.217-.754 9.663-1.341 15.549-1.341 6.15 0 10.718.754 14.67 3.019 3.954 1.928 6.852 5.534 6.852 10.313 0 7.127-5.534 11.654-11.946 13.416zm-21.962 20.627c1.493.167 2.987.251 4.831.251 6.852 0 13.09-2.6 13.09-8.888 0-5.618-4.92-7.295-10.806-7.295h-3.952s-3.163 15.932-3.163 15.932zm12.65-38.236c-2.196 0-3.954.169-4.92.42 0 0-2.635 13.081-2.635 13.081h4.216c6.941 0 11.684-2.852 11.684-7.631 0-4.108-3.513-5.87-8.345-5.87z" fill="#fff"/></svg>